# xmcd CD database file
#
# Track frame offsets:
#	182
#	18342
#	33877
#	44677
#
# Disc length: 831 seconds
#
# Revision: 2
# Processed by: cddbd v1.5PL3 Copyright (c) Steve Scherf et al.
# Submitted via: CDex 1.40Release
#
DISCID=29033d04
DTITLE=Sherry Rich and the Grevous Angels - Trying to Write a Love Song
DYEAR=1995
DGENRE=Country
TTITLE0=Trying to Write a Love Song
TTITLE1=Sitting Here Alone (Country Star's Lament)
TTITLE2=That's What I Like
TTITLE3=Dark End of the Street
EXTD=YEAR: 1995 ID3G: 2
EXTT0=
EXTT1=
EXTT2=
EXTT3=
PLAYORDER=
